<svg width="23" height="11" viewBox="0 0 23 11" fill="none" xmlns="http://www.w3.org/2000/svg">
<path d="M0.777001 0.828691C0.638042 0.941707 0.527792 1.07596 0.452568 1.22377C0.377344 1.37158 0.338623 1.53004 0.338623 1.69007C0.338623 1.8501 0.377344 2.00856 0.452568 2.15637C0.527792 2.30418 0.638042 2.43844 0.777001 2.55145L10.6969 10.6397C10.8073 10.7299 10.9385 10.8015 11.0829 10.8503C11.2273 10.8992 11.3821 10.9243 11.5385 10.9243C11.6948 10.9243 11.8496 10.8992 11.994 10.8503C12.1384 10.8015 12.2696 10.7299 12.38 10.6397L22.2999 2.55145C22.8849 2.07453 22.8849 1.30561 22.2999 0.828691C21.715 0.351768 21.1008 0.746851 20.5159 1.22377L15.3159 5.48381L11.4999 8.48492L1.89995 0.818258C1.89995 0.818258 1.34999 0.351768 0.777001 0.828691Z" fill="black"/>
</svg>
